<svg xmlns="http://www.w3.org/2000/svg" viewBox="0 0 512 512" fill="none">
  <defs>
    <linearGradient id="bg" x1="64" y1="48" x2="448" y2="464" gradientUnits="userSpaceOnUse">
      <stop stop-color="#00c896"/>
      <stop offset="1" stop-color="#007a5c"/>
    </linearGradient>
    <linearGradient id="shine" x1="256" y1="48" x2="256" y2="280" gradientUnits="userSpaceOnUse">
      <stop stop-color="#fff" stop-opacity=".22"/>
      <stop offset="1" stop-color="#fff" stop-opacity="0"/>
    </linearGradient>
    <filter id="shadow" x="-20%" y="-20%" width="140%" height="140%">
      <feDropShadow dx="0" dy="8" stdDeviation="12" flood-color="#004d3a" flood-opacity=".25"/>
    </filter>
  </defs>
  <rect width="512" height="512" rx="112" fill="url(#bg)"/>
  <rect width="512" height="512" rx="112" fill="url(#shine)"/>
  <g filter="url(#shadow)">
    <rect x="128" y="104" width="256" height="304" rx="28" fill="#fff"/>
    <path d="M128 132c0-15.464 12.536-28 28-28h200c15.464 0 28 12.536 28 28v36H128V132z" fill="#d1faf0"/>
    <rect x="168" y="196" width="176" height="16" rx="8" fill="#b8f0e0"/>
    <rect x="168" y="232" width="136" height="14" rx="7" fill="#d1faf0"/>
    <rect x="168" y="264" width="152" height="14" rx="7" fill="#d1faf0"/>
    <rect x="168" y="296" width="112" height="14" rx="7" fill="#d1faf0"/>
    <circle cx="256" cy="356" r="52" fill="#00b386"/>
    <path d="M256 322c-10.5 0-19 7.4-19 16.5 0 7.2 5.8 13.3 14.2 15.5l10.8 2.7c4.2 1 7 3.8 7 7.3 0 4.3-4.5 7.8-10 7.8-5.2 0-9.6-3.2-10.5-7.5h-14.5c1.4 12.8 12.2 22.7 25 22.7 14.3 0 25.5-9.5 25.5-21.5 0-9.8-7.2-18.2-17.8-20.8l-10.7-2.7c-3.8-.9-6.5-3.5-6.5-6.7 0-4 4.2-7.2 9.5-7.2 4.5 0 8.3 2.5 9.2 6h14.3c-1.2-11.5-10.8-20.3-23.5-20.3z" fill="#fff"/>
    <path d="M300 148 276 196h20l-12 44 52-56h-22l14-36z" fill="#00b386"/>
  </g>
</svg>
